<svg class="railroad-diagram" xmlns="http://www.w3.org/2000/svg" width="573" height="91" viewBox="0 0 573 91">
<style>
    svg.railroad-diagram {
        background-color: hsl(30,20%,95%);
    }
    svg.railroad-diagram path {
        stroke-width: 3;
        stroke: black;
        fill: rgba(0,0,0,0);
    }
    svg.railroad-diagram text {
        font: bold 14px monospace;
        text-anchor: middle;
    }
    svg.railroad-diagram text.label {
        text-anchor: start;
    }
    svg.railroad-diagram text.comment {
        font: italic 12px monospace;
    }
    svg.railroad-diagram rect {
        stroke-width: 3;
        stroke: black;
        fill: hsl(120,100%,90%);
    }
</style>
<g transform="translate(.5 .5)">
<path d="M 20 41 v 20 m 10 -20 v 20 m -10 -10 h 20.5"></path>
<g>
<path d="M40 51h0"></path>
<path d="M532 51h0"></path>
<g>
<path d="M40 51h0"></path>
<path d="M372 51h0"></path>
<path d="M40 51a10 10 0 0 0 10 -10v-9a10 10 0 0 1 10 -10"></path>
<g>
<path d="M60 22h292"></path>
</g>
<path d="M352 22a10 10 0 0 1 10 10v9a10 10 0 0 0 10 10"></path>
<path d="M40 51h20"></path>
<g>
<path d="M60 51h0"></path>
<path d="M352 51h0"></path>
<path d="M60 51h10"></path>
<g>
<path d="M70 51h0"></path>
<path d="M342 51h0"></path>
<g>
<path d="M70 51h0"></path>
<path d="M342 51h0"></path>
<g>
<path d="M70 51h0"></path>
<path d="M230 51h0"></path>
<path d="M70 51a10 10 0 0 0 10 -10v0a10 10 0 0 1 10 -10"></path>
<g>
<path d="M90 31h120"></path>
</g>
<path d="M210 31a10 10 0 0 1 10 10v0a10 10 0 0 0 10 10"></path>
<path d="M70 51h20"></path>
<g>
<path d="M90 51h0"></path>
<path d="M210 51h0"></path>
<path d="M90 51h10"></path>
<g>
<path d="M100 51h0"></path>
<path d="M200 51h0"></path>
<rect x="100" y="40" width="100" height="22"></rect>
<text x="150" y="55">DocmlSpace</text>
</g>
<path d="M200 51h10"></path>
</g>
<path d="M210 51h20"></path>
</g>
<path d="M230 51h10"></path>
<g>
<path d="M240 51h0"></path>
<path d="M332 51h0"></path>
<rect x="240" y="40" width="92" height="22"></rect>
<text x="286" y="55">DocmlNode</text>
</g>
<path d="M332 51h10"></path>
</g>
</g>
<path d="M342 51h10"></path>
<path d="M70 51a10 10 0 0 0 -10 10v0a10 10 0 0 0 10 10"></path>
<g>
<path d="M70 71h272"></path>
</g>
<path d="M342 71a10 10 0 0 0 10 -10v0a10 10 0 0 0 -10 -10"></path>
</g>
<path d="M352 51h20"></path>
</g>
<g>
<path d="M372 51h0"></path>
<path d="M532 51h0"></path>
<path d="M372 51a10 10 0 0 0 10 -10v0a10 10 0 0 1 10 -10"></path>
<g>
<path d="M392 31h120"></path>
</g>
<path d="M512 31a10 10 0 0 1 10 10v0a10 10 0 0 0 10 10"></path>
<path d="M372 51h20"></path>
<g>
<path d="M392 51h0"></path>
<path d="M512 51h0"></path>
<path d="M392 51h10"></path>
<g>
<path d="M402 51h0"></path>
<path d="M502 51h0"></path>
<rect x="402" y="40" width="100" height="22"></rect>
<text x="452" y="55">DocmlSpace</text>
</g>
<path d="M502 51h10"></path>
</g>
<path d="M512 51h20"></path>
</g>
</g>
<path d="M 532 51 h 20 m -10 -10 v 20 m 10 -20 v 20"></path>
</g>
</svg>
