<svg class="railroad-diagram" xmlns="http://www.w3.org/2000/svg" width="257" height="71" viewBox="0 0 257 71">
<style>
    svg.railroad-diagram {
        background-color: hsl(30,20%,95%);
    }
    svg.railroad-diagram path {
        stroke-width: 3;
        stroke: black;
        fill: rgba(0,0,0,0);
    }
    svg.railroad-diagram text {
        font: bold 14px monospace;
        text-anchor: middle;
    }
    svg.railroad-diagram text.label {
        text-anchor: start;
    }
    svg.railroad-diagram text.comment {
        font: italic 12px monospace;
    }
    svg.railroad-diagram rect {
        stroke-width: 3;
        stroke: black;
        fill: hsl(120,100%,90%);
    }
</style>
<g transform="translate(.5 .5)">
<path d="M 20 21 v 20 m 10 -20 v 20 m -10 -10 h 20.5"></path>
<path d="M40 31h10"></path>
<g>
<path d="M50 31h0"></path>
<path d="M206 31h0"></path>
<path d="M50 31h10"></path>
<g>
<path d="M60 31h0"></path>
<path d="M196 31h0"></path>
<path d="M60 31h10"></path>
<g>
<path d="M70 31h0"></path>
<path d="M186 31h0"></path>
<rect x="70" y="20" width="116" height="22"></rect>
<text x="128" y="35">SINGLE&#95;SPACE</text>
</g>
<path d="M186 31h10"></path>
</g>
<path d="M196 31h10"></path>
<path d="M60 31a10 10 0 0 0 -10 10v0a10 10 0 0 0 10 10"></path>
<g>
<path d="M60 51h136"></path>
</g>
<path d="M196 51a10 10 0 0 0 10 -10v0a10 10 0 0 0 -10 -10"></path>
</g>
<path d="M206 31h10"></path>
<path d="M 216 31 h 20 m -10 -10 v 20 m 10 -20 v 20"></path>
</g>
</svg>
